<svg id="visual" viewBox="0 0 900 900" width="900" height="900" xmlns="http://www.w3.org/2000/svg" xmlns:xlink="http://www.w3.org/1999/xlink" version="1.1"><rect x="0" y="0" width="900" height="900" fill="#474b4f"></rect><g transform="translate(309.49136122606023 496.2394893938661)"><path d="M306.4 -557.5C424.5 -462.5 566.4 -435.8 598.2 -354.2C629.9 -272.7 551.5 -136.3 595.8 25.6C640.1 187.5 807.2 375 767.1 442.1C727 509.2 479.8 456 317.4 542.9C155 629.8 77.5 856.9 0.2 856.6C-77.2 856.3 -154.3 628.6 -223.3 487.8C-292.3 347 -353.1 293 -410.6 226.2C-468 159.3 -522 79.7 -473.3 28.1C-424.6 -23.4 -273.2 -46.9 -270.8 -209C-268.4 -371.1 -414.9 -671.8 -394.6 -823.3C-374.3 -974.7 -187.2 -976.8 -46.5 -896.3C94.2 -815.8 188.3 -652.5 306.4 -557.5" fill="#222629"></path></g></svg>